<svg xmlns="http://www.w3.org/2000/svg" width="880" height="520" viewBox="0 0 880 520" role="img" aria-label="Spider frontier recall versus represented evaluation spend"><rect width="880" height="520" fill="#fcfcf9" /><rect x="16" y="16" width="848" height="488" fill="#fffdfa" stroke="#e2e8f0" rx="18" /><line x1="127.5" y1="40" x2="127.5" y2="450" stroke="#e2e8f0" stroke-dasharray="4 4" /><text x="127.5" y="472" text-anchor="middle" font-family="Georgia, serif" font-size="12" fill="#64748b">$0.43</text><line x1="211.9" y1="40" x2="211.9" y2="450" stroke="#e2e8f0" stroke-dasharray="4 4" /><text x="211.9" y="472" text-anchor="middle" font-family="Georgia, serif" font-size="12" fill="#64748b">$0.61</text><line x1="460.3" y1="40" x2="460.3" y2="450" stroke="#e2e8f0" stroke-dasharray="4 4" /><text x="460.3" y="472" text-anchor="middle" font-family="Georgia, serif" font-size="12" fill="#64748b">$1.14</text><line x1="788.4" y1="40" x2="788.4" y2="450" stroke="#e2e8f0" stroke-dasharray="4 4" /><text x="788.4" y="472" text-anchor="middle" font-family="Georgia, serif" font-size="12" fill="#64748b">$1.84</text><line x1="90" y1="374.1" x2="840" y2="374.1" stroke="#e2e8f0" stroke-dasharray="4 4" /><text x="78" y="378.1" text-anchor="end" font-family="Georgia, serif" font-size="12" fill="#64748b">0.80</text><line x1="90" y1="222.2" x2="840" y2="222.2" stroke="#e2e8f0" stroke-dasharray="4 4" /><text x="78" y="226.2" text-anchor="end" font-family="Georgia, serif" font-size="12" fill="#64748b">0.90</text><line x1="90" y1="70.4" x2="840" y2="70.4" stroke="#e2e8f0" stroke-dasharray="4 4" /><text x="78" y="74.4" text-anchor="end" font-family="Georgia, serif" font-size="12" fill="#64748b">1.00</text><text x="440.0" y="502" text-anchor="middle" font-family="Georgia, serif" font-size="15" fill="#0f172a">Represented evaluation spend</text><text x="24" y="260.0" transform="rotate(-90 24 260.0)" text-anchor="middle" font-family="Georgia, serif" font-size="15" fill="#0f172a">Frontier recall</text><text x="44" y="52" font-family="Georgia, serif" font-size="24" font-weight="700" fill="#0f172a">Same Spider frontier with much less evaluation spend</text><text x="44" y="78" font-family="Georgia, serif" font-size="15" fill="#475569">Smartopt recovers the correct frontier long before exhaustive evaluation</text><polyline fill="none" stroke="#0f766e" stroke-width="3" points="127.3,70.4 211.6,70.4 459.6,70.4 787.3,70.4" /><circle cx="127.3" cy="70.4" r="5" fill="#0f766e" /><circle cx="211.6" cy="70.4" r="5" fill="#0f766e" /><circle cx="459.6" cy="70.4" r="5" fill="#0f766e" /><circle cx="787.3" cy="70.4" r="5" fill="#0f766e" /><polyline fill="none" stroke="#2563eb" stroke-width="3" points="127.3,70.4 211.6,70.4 459.6,70.4 787.3,70.4" /><circle cx="127.3" cy="70.4" r="5" fill="#2563eb" /><circle cx="211.6" cy="70.4" r="5" fill="#2563eb" /><circle cx="459.6" cy="70.4" r="5" fill="#2563eb" /><circle cx="787.3" cy="70.4" r="5" fill="#2563eb" /><polyline fill="none" stroke="#94a3b8" stroke-width="3" points="125.8,70.4 208.8,70.4 455.8,70.4 783.1,70.4" /><circle cx="125.8" cy="70.4" r="5" fill="#94a3b8" /><circle cx="208.8" cy="70.4" r="5" fill="#94a3b8" /><circle cx="455.8" cy="70.4" r="5" fill="#94a3b8" /><circle cx="783.1" cy="70.4" r="5" fill="#94a3b8" /><polyline fill="none" stroke="#dc2626" stroke-width="3" points="126.2,374.1 210.0,70.4 458.1,70.4 783.0,70.4" /><circle cx="126.2" cy="374.1" r="5" fill="#dc2626" /><circle cx="210.0" cy="70.4" r="5" fill="#dc2626" /><circle cx="458.1" cy="70.4" r="5" fill="#dc2626" /><circle cx="783.0" cy="70.4" r="5" fill="#dc2626" /><rect x="630" y="44" width="190" height="126" fill="#fffdfa" stroke="#e2e8f0" rx="12" /><circle cx="648" cy="64" r="6" fill="#0f766e" /><text x="664" y="68" font-family="Georgia, serif" font-size="13" fill="#0f172a">Smartopt mean-bounds</text><circle cx="648" cy="88" r="6" fill="#2563eb" /><text x="664" y="92" font-family="Georgia, serif" font-size="13" fill="#0f172a">Combined greedy</text><circle cx="648" cy="112" r="6" fill="#94a3b8" /><text x="664" y="116" font-family="Georgia, serif" font-size="13" fill="#0f172a">Random</text><circle cx="648" cy="136" r="6" fill="#dc2626" /><text x="664" y="140" font-family="Georgia, serif" font-size="13" fill="#0f172a">Naive fixed order</text></svg>