<svg xmlns="http://www.w3.org/2000/svg" width="880" height="520" viewBox="0 0 880 520" role="img" aria-label="Live confirmation tradeoff on GSM8K"><rect width="880" height="520" fill="#fcfcf9" /><rect x="16" y="16" width="848" height="488" fill="#fffdfa" stroke="#e2e8f0" rx="18" /><line x1="90.0" y1="40" x2="90.0" y2="450" stroke="#e2e8f0" stroke-dasharray="4 4" /><text x="90.0" y="472" text-anchor="middle" font-family="Georgia, serif" font-size="12" fill="#64748b">$0.0000</text><line x1="249.8" y1="40" x2="249.8" y2="450" stroke="#e2e8f0" stroke-dasharray="4 4" /><text x="249.8" y="472" text-anchor="middle" font-family="Georgia, serif" font-size="12" fill="#64748b">$0.0002</text><line x1="409.6" y1="40" x2="409.6" y2="450" stroke="#e2e8f0" stroke-dasharray="4 4" /><text x="409.6" y="472" text-anchor="middle" font-family="Georgia, serif" font-size="12" fill="#64748b">$0.0004</text><line x1="569.3" y1="40" x2="569.3" y2="450" stroke="#e2e8f0" stroke-dasharray="4 4" /><text x="569.3" y="472" text-anchor="middle" font-family="Georgia, serif" font-size="12" fill="#64748b">$0.0006</text><line x1="729.1" y1="40" x2="729.1" y2="450" stroke="#e2e8f0" stroke-dasharray="4 4" /><text x="729.1" y="472" text-anchor="middle" font-family="Georgia, serif" font-size="12" fill="#64748b">$0.0008</text><line x1="90" y1="420.7" x2="840" y2="420.7" stroke="#e2e8f0" stroke-dasharray="4 4" /><text x="78" y="424.7" text-anchor="end" font-family="Georgia, serif" font-size="12" fill="#64748b">0.00</text><line x1="90" y1="303.6" x2="840" y2="303.6" stroke="#e2e8f0" stroke-dasharray="4 4" /><text x="78" y="307.6" text-anchor="end" font-family="Georgia, serif" font-size="12" fill="#64748b">0.20</text><line x1="90" y1="186.4" x2="840" y2="186.4" stroke="#e2e8f0" stroke-dasharray="4 4" /><text x="78" y="190.4" text-anchor="end" font-family="Georgia, serif" font-size="12" fill="#64748b">0.40</text><line x1="90" y1="69.3" x2="840" y2="69.3" stroke="#e2e8f0" stroke-dasharray="4 4" /><text x="78" y="73.3" text-anchor="end" font-family="Georgia, serif" font-size="12" fill="#64748b">0.60</text><text x="440.0" y="502" text-anchor="middle" font-family="Georgia, serif" font-size="15" fill="#0f172a">Mean cost per evaluation</text><text x="24" y="260.0" transform="rotate(-90 24 260.0)" text-anchor="middle" font-family="Georgia, serif" font-size="15" fill="#0f172a">Mean success rate</text><text x="44" y="52" font-family="Georgia, serif" font-size="24" font-weight="700" fill="#0f172a">Fresh live run confirms the certification logic</text><text x="44" y="78" font-family="Georgia, serif" font-size="15" fill="#475569">144 real OpenRouter evaluations; certified frontier matched empirical frontier exactly</text><circle cx="99.5" cy="420.7" r="10.2" fill="#cbd5e1" opacity="0.88" /><text x="111.5" y="410.7" font-family="Georgia, serif" font-size="14" fill="#0f172a">Weak</text><circle cx="104.5" cy="176.7" r="8.5" fill="#2563eb" opacity="0.88" /><text x="116.5" y="166.7" font-family="Georgia, serif" font-size="14" fill="#0f172a">Mid Llama</text><circle cx="117.6" cy="127.9" r="11.0" fill="#0f766e" opacity="0.88" /><text x="129.6" y="117.9" font-family="Georgia, serif" font-size="14" fill="#0f172a">Mid Flash</text><circle cx="784.4" cy="79.0" r="8.0" fill="#7c3aed" opacity="0.88" /><text x="796.4" y="69.0" font-family="Georgia, serif" font-size="14" fill="#0f172a">Flagship Sonnet</text><rect x="650" y="44" width="190" height="126" fill="#fffdfa" stroke="#e2e8f0" rx="12" /><circle cx="668" cy="64" r="6" fill="#cbd5e1" /><text x="684" y="68" font-family="Georgia, serif" font-size="13" fill="#0f172a">Weak</text><circle cx="668" cy="88" r="6" fill="#2563eb" /><text x="684" y="92" font-family="Georgia, serif" font-size="13" fill="#0f172a">Mid Llama</text><circle cx="668" cy="112" r="6" fill="#0f766e" /><text x="684" y="116" font-family="Georgia, serif" font-size="13" fill="#0f172a">Mid Flash</text><circle cx="668" cy="136" r="6" fill="#7c3aed" /><text x="684" y="140" font-family="Georgia, serif" font-size="13" fill="#0f172a">Flagship Sonnet</text></svg>