<svg xmlns="http://www.w3.org/2000/svg" width="880" height="520" viewBox="0 0 880 520" role="img" aria-label="Spider task scoring signal"><rect width="880" height="520" fill="#fcfcf9" /><rect x="16" y="16" width="848" height="488" fill="#fffdfa" stroke="#e2e8f0" rx="18" /><line x1="100" y1="360.0" x2="840" y2="360.0" stroke="#e2e8f0" stroke-dasharray="4 4" /><text x="88" y="364.0" text-anchor="end" font-family="Georgia, serif" font-size="12" fill="#64748b">0.50</text><line x1="100" y1="260.0" x2="840" y2="260.0" stroke="#e2e8f0" stroke-dasharray="4 4" /><text x="88" y="264.0" text-anchor="end" font-family="Georgia, serif" font-size="12" fill="#64748b">0.60</text><line x1="100" y1="160.0" x2="840" y2="160.0" stroke="#e2e8f0" stroke-dasharray="4 4" /><text x="88" y="164.0" text-anchor="end" font-family="Georgia, serif" font-size="12" fill="#64748b">0.70</text><line x1="100" y1="60.0" x2="840" y2="60.0" stroke="#e2e8f0" stroke-dasharray="4 4" /><text x="88" y="64.0" text-anchor="end" font-family="Georgia, serif" font-size="12" fill="#64748b">0.80</text><text x="440.0" y="502" text-anchor="middle" font-family="Georgia, serif" font-size="15" fill="#0f172a">Task budget</text><text x="24" y="260.0" transform="rotate(-90 24 260.0)" text-anchor="middle" font-family="Georgia, serif" font-size="15" fill="#0f172a">Oracle alignment</text><text x="44" y="52" font-family="Georgia, serif" font-size="24" font-weight="700" fill="#0f172a">Task scoring has signal on Spider</text><text x="44" y="78" font-family="Georgia, serif" font-size="15" fill="#475569">Uniqueness and informativeness rank better evaluation examples than random</text><text x="195.0" y="480" text-anchor="middle" font-family="Georgia, serif" font-size="14" fill="#0f172a">10% budget</text><rect x="140.0" y="338.2" width="30" height="71.8" fill="#cbd5e1" rx="4" /><text x="155.0" y="500" text-anchor="middle" font-family="Georgia, serif" font-size="12" fill="#334155">Random</text><rect x="180.0" y="166.5" width="30" height="243.5" fill="#2563eb" rx="4" /><text x="195.0" y="500" text-anchor="middle" font-family="Georgia, serif" font-size="12" fill="#334155">Info</text><rect x="220.0" y="128.5" width="30" height="281.5" fill="#0f766e" rx="4" /><text x="235.0" y="500" text-anchor="middle" font-family="Georgia, serif" font-size="12" fill="#334155">Unique</text><rect x="260.0" y="201.4" width="30" height="208.6" fill="#f59e0b" rx="4" /><text x="275.0" y="500" text-anchor="middle" font-family="Georgia, serif" font-size="12" fill="#334155">Combined</text><text x="375.0" y="480" text-anchor="middle" font-family="Georgia, serif" font-size="14" fill="#0f172a">15% budget</text><rect x="320.0" y="365.2" width="30" height="44.8" fill="#cbd5e1" rx="4" /><text x="335.0" y="500" text-anchor="middle" font-family="Georgia, serif" font-size="12" fill="#334155">Random</text><rect x="360.0" y="237.9" width="30" height="172.1" fill="#2563eb" rx="4" /><text x="375.0" y="500" text-anchor="middle" font-family="Georgia, serif" font-size="12" fill="#334155">Info</text><rect x="400.0" y="167.9" width="30" height="242.1" fill="#0f766e" rx="4" /><text x="415.0" y="500" text-anchor="middle" font-family="Georgia, serif" font-size="12" fill="#334155">Unique</text><rect x="440.0" y="266.7" width="30" height="143.3" fill="#f59e0b" rx="4" /><text x="455.0" y="500" text-anchor="middle" font-family="Georgia, serif" font-size="12" fill="#334155">Combined</text><text x="555.0" y="480" text-anchor="middle" font-family="Georgia, serif" font-size="14" fill="#0f172a">30% budget</text><rect x="500.0" y="361.6" width="30" height="48.4" fill="#cbd5e1" rx="4" /><text x="515.0" y="500" text-anchor="middle" font-family="Georgia, serif" font-size="12" fill="#334155">Random</text><rect x="540.0" y="323.7" width="30" height="86.3" fill="#2563eb" rx="4" /><text x="555.0" y="500" text-anchor="middle" font-family="Georgia, serif" font-size="12" fill="#334155">Info</text><rect x="580.0" y="269.8" width="30" height="140.2" fill="#0f766e" rx="4" /><text x="595.0" y="500" text-anchor="middle" font-family="Georgia, serif" font-size="12" fill="#334155">Unique</text><rect x="620.0" y="337.4" width="30" height="72.6" fill="#f59e0b" rx="4" /><text x="635.0" y="500" text-anchor="middle" font-family="Georgia, serif" font-size="12" fill="#334155">Combined</text><text x="440.0" y="74.0" text-anchor="middle" font-family="Georgia, serif" font-size="13" fill="#64748b">Combined policy still needs refinement; the strongest Spider signal today is uniqueness.</text></svg>